<svg width="153" height="54" viewBox="0 0 153 54" fill="none" xmlns="http://www.w3.org/2000/svg">
<path d="M21.8138 42.1052C29.7848 42.1052 36.2465 35.6434 36.2465 27.6724C36.2465 19.7015 29.7848 13.2397 21.8138 13.2397C13.8428 13.2397 7.3811 19.7015 7.3811 27.6724C7.3811 35.6434 13.8428 42.1052 21.8138 42.1052Z" fill="#D7D744"/>
<path d="M21.1577 39.4809C29.1286 39.4809 35.5904 33.0191 35.5904 25.0482C35.5904 17.0772 29.1286 10.6155 21.1577 10.6155C13.1867 10.6155 6.72498 17.0772 6.72498 25.0482C6.72498 33.0191 13.1867 39.4809 21.1577 39.4809Z" fill="#D7D744" stroke="black" stroke-width="1.31206"/>
<path d="M21.1578 30.6245C21.1578 30.6245 12.6294 26.0323 12.6294 21.112C12.6294 17.8319 14.9255 15.8638 17.8777 15.8638C19.1897 15.8638 20.1738 16.8478 21.1578 18.1599C22.1419 16.8478 23.1259 15.8638 24.438 15.8638C27.3901 15.8638 29.6862 17.8319 29.6862 21.112C29.6862 26.0323 21.1578 30.6245 21.1578 30.6245Z" fill="black"/>
<path d="M42.2683 39V10.7909H47.8579V28.8641L45.7711 28.1933L54.7518 18.6537H61.6457L54.2674 26.8518L61.6085 39H55.2735L49.1249 28.6778L52.3669 27.858L46.1438 34.6401L47.8579 31.3981V39H42.2683ZM64.1029 39V18.6537H69.6925V39H64.1029ZM64.1029 16.8277V11.2381H69.6925V16.8277H64.1029ZM73.7828 39V18.6537H79.3725V39H73.7828ZM73.7828 16.8277V11.2381H79.3725V16.8277H73.7828ZM83.4628 39V18.6537H88.6798V23.6098L88.1209 22.79C88.419 21.2249 89.1394 20.0697 90.2822 19.3244C91.425 18.5791 92.7913 18.2065 94.3813 18.2065C96.0706 18.2065 97.5488 18.6413 98.8157 19.5108C100.108 20.3554 100.915 21.4982 101.238 22.9391L99.6356 23.0881C100.306 21.4237 101.263 20.1939 102.505 19.399C103.747 18.604 105.2 18.2065 106.865 18.2065C108.331 18.2065 109.622 18.5295 110.74 19.1754C111.883 19.8213 112.777 20.7281 113.423 21.8957C114.069 23.0384 114.392 24.38 114.392 25.9202V39H108.803V27.1127C108.803 26.3177 108.654 25.6345 108.355 25.0631C108.082 24.4918 107.685 24.0446 107.163 23.7216C106.641 23.3987 106.008 23.2372 105.262 23.2372C104.542 23.2372 103.909 23.3987 103.362 23.7216C102.84 24.0446 102.43 24.4918 102.132 25.0631C101.859 25.6345 101.722 26.3177 101.722 27.1127V39H96.1327V27.1127C96.1327 26.3177 95.9837 25.6345 95.6855 25.0631C95.4123 24.4918 95.0148 24.0446 94.4931 23.7216C93.9714 23.3987 93.3379 23.2372 92.5926 23.2372C91.8722 23.2372 91.2387 23.3987 90.6921 23.7216C90.1704 24.0446 89.7605 24.4918 89.4624 25.0631C89.1891 25.6345 89.0525 26.3177 89.0525 27.1127V39H83.4628ZM124.368 39.4472C122.903 39.4472 121.636 39.2112 120.567 38.7391C119.499 38.2671 118.679 37.5964 118.108 36.7269C117.537 35.8325 117.251 34.7767 117.251 33.5594C117.251 32.4166 117.512 31.4105 118.033 30.541C118.555 29.6467 119.35 28.9014 120.418 28.3051C121.511 27.7089 122.865 27.2866 124.48 27.0382L130.703 26.032V30.1311L125.486 31.0627C124.691 31.2118 124.083 31.4726 123.66 31.8452C123.238 32.193 123.027 32.7023 123.027 33.3731C123.027 33.9942 123.263 34.4786 123.735 34.8264C124.207 35.1742 124.791 35.3481 125.486 35.3481C126.405 35.3481 127.213 35.1494 127.908 34.7519C128.604 34.3544 129.138 33.8203 129.511 33.1495C129.908 32.4539 130.107 31.6962 130.107 30.8764V25.5848C130.107 24.8147 129.796 24.1688 129.175 23.6471C128.579 23.1254 127.759 22.8645 126.716 22.8645C125.722 22.8645 124.84 23.1378 124.07 23.6844C123.325 24.2309 122.778 24.9513 122.431 25.8457L117.959 23.7216C118.356 22.5789 118.99 21.5976 119.859 20.7777C120.729 19.9579 121.772 19.3244 122.99 18.8773C124.207 18.4301 125.536 18.2065 126.977 18.2065C128.691 18.2065 130.206 18.517 131.523 19.1381C132.84 19.7592 133.858 20.6287 134.579 21.7466C135.324 22.8397 135.697 24.1191 135.697 25.5848V39H130.48V35.7207L131.747 35.4972C131.15 36.3915 130.492 37.1368 129.772 37.733C129.051 38.3044 128.244 38.7267 127.349 39C126.455 39.2981 125.461 39.4472 124.368 39.4472Z" fill="white"/>
<path d="M142.554 39V33.4104H148.143V39H142.554Z" fill="#D7D744"/>
</svg>
