<svg width="245" height="245" viewBox="0 0 245 245" fill="none" xmlns="http://www.w3.org/2000/svg">
<path d="M127.037 231.389C182.163 231.389 226.852 186.7 226.852 131.574C226.852 76.4479 182.163 31.7593 127.037 31.7593C71.9108 31.7593 27.2222 76.4479 27.2222 131.574C27.2222 186.7 71.9108 231.389 127.037 231.389Z" fill="#7A7A00"/>
<path d="M122.5 213.241C177.626 213.241 222.315 168.552 222.315 113.426C222.315 58.2997 177.626 13.6111 122.5 13.6111C67.3737 13.6111 22.6851 58.2997 22.6851 113.426C22.6851 168.552 67.3737 213.241 122.5 213.241Z" fill="#D7D744" stroke="black" stroke-width="9.07407"/>
<path d="M122.5 151.991C122.5 151.991 63.5186 120.232 63.5186 86.2038C63.5186 63.5186 79.3982 49.9075 99.8148 49.9075C108.889 49.9075 115.694 56.713 122.5 65.7871C129.306 56.713 136.111 49.9075 145.185 49.9075C165.602 49.9075 181.482 63.5186 181.482 86.2038C181.482 120.232 122.5 151.991 122.5 151.991Z" fill="black"/>
</svg>
